<svg version="1.1" id="Layer_1" xmlns="http://www.w3.org/2000/svg" xmlns:xlink="http://www.w3.org/1999/xlink" x="0px" y="0px"
	 width="100%" viewBox="0 0 500 500" enable-background="new 0 0 500 500" xml:space="preserve">
<path fill="#000000" opacity="1.000000" stroke="none" 
	d="
M293.000000,501.000000 
	C195.333359,501.000000 98.166710,501.000000 1.000052,501.000000 
	C1.000035,334.333405 1.000035,167.666794 1.000017,1.000142 
	C167.666565,1.000094 334.333130,1.000094 500.999756,1.000047 
	C500.999847,167.666519 500.999847,334.333038 500.999939,500.999786 
	C431.833344,501.000000 362.666656,501.000000 293.000000,501.000000 
M337.999481,116.083199 
	C337.998962,110.321098 338.095062,104.556641 337.954712,98.797951 
	C337.890320,96.156281 337.361481,93.525925 337.010925,90.066071 
	C334.971375,84.890610 333.848724,79.052414 330.691589,74.684784 
	C325.018768,66.836845 316.140900,63.206097 306.790283,62.217007 
	C299.993805,61.498089 293.000610,62.638721 285.637299,62.201111 
	C266.098175,62.187233 246.559067,62.173355 226.194885,62.331085 
	C217.896042,62.546684 209.542801,63.451263 201.312256,62.801628 
	C191.263687,62.008499 182.562378,64.570198 174.918930,70.684128 
	C169.868225,74.724136 165.856445,80.193123 165.185318,86.583694 
	C164.152420,96.418953 164.447632,106.393677 163.577423,116.919785 
	C161.916718,116.948334 160.256058,116.997467 158.595276,117.002319 
	C137.148697,117.064987 115.702110,117.121353 93.448952,117.149040 
	C89.500519,118.471992 85.246521,119.244492 81.666771,121.231613 
	C74.037941,125.466400 68.646019,131.613113 67.982697,141.865799 
	C68.042953,169.563538 68.103210,197.261261 68.024055,225.706680 
	C69.433090,230.057632 71.856758,233.099243 76.955070,233.017853 
	C82.105286,232.935638 87.359917,232.407562 92.363892,233.267380 
	C94.668465,233.663345 96.484352,236.903458 98.521812,238.853943 
	C96.544510,240.902191 94.796959,244.357361 92.545227,244.725082 
	C86.664833,245.685349 80.546906,245.074203 74.557716,245.533432 
	C71.462242,245.770767 68.437164,246.949402 67.993675,251.873856 
	C67.998390,258.522308 67.999893,265.170776 68.008362,271.819244 
	C68.057686,310.543488 68.108627,349.267700 68.024239,388.811340 
	C68.277794,402.621918 84.115402,415.222504 94.914589,414.000336 
	C107.407707,414.329773 119.899368,414.801849 132.394547,414.930298 
	C138.925537,414.997467 145.462723,414.460449 151.673141,414.796082 
	C148.464127,420.930878 144.932037,426.928650 142.237259,433.281586 
	C141.396896,435.262726 141.983887,439.447235 143.408585,440.404938 
	C145.390335,441.737152 149.193558,441.939728 151.483673,440.942108 
	C158.856232,437.730560 166.138672,434.148254 172.988144,429.946472 
	C179.695816,425.831665 187.527664,423.088928 192.600479,415.875092 
	C192.898788,415.669495 193.042999,415.385590 192.995193,415.004211 
	C192.995193,415.004211 193.019180,415.039978 193.878189,414.941620 
	C199.776749,414.628571 205.674469,414.064636 211.573990,414.045105 
	C239.787338,413.951782 268.001160,414.013519 296.214813,413.991821 
	C298.187988,413.990326 300.161011,413.759583 302.453613,413.709137 
	C302.726257,413.787659 302.890625,413.687653 303.686768,413.935028 
	C311.588928,416.287140 319.369141,419.285645 327.428223,420.805756 
	C335.164490,422.265045 338.553101,419.953918 341.924103,414.014923 
	C364.293365,413.960114 386.662628,413.905334 409.824493,413.977234 
	C421.375397,412.653137 434.348663,400.733368 434.091583,387.541382 
	C433.818695,373.541290 434.016754,359.532013 434.013489,345.526733 
	C434.010559,332.974213 433.893036,320.420105 434.054138,307.869659 
	C434.170593,298.797394 434.767761,289.732117 434.951172,280.659668 
	C435.106293,272.987823 434.954468,265.310150 434.976654,257.635162 
	C434.999481,249.740051 433.976074,247.957108 427.696899,245.203705 
	C416.154266,245.116013 404.611603,245.028320 392.702393,244.268021 
	C387.443298,242.187775 387.379211,236.987885 393.393494,232.979507 
	C403.928040,232.987228 414.463287,233.057587 424.996338,232.936295 
	C426.606995,232.917755 428.207458,232.013794 430.442169,231.048691 
	C433.522095,228.984924 434.283356,226.095352 434.090668,222.487167 
	C433.833740,217.677002 434.105255,212.838608 434.893158,207.570953 
	C434.928680,188.557816 434.975281,169.544662 434.963440,150.531540 
	C434.962891,149.682526 434.431458,148.833847 434.032288,147.086761 
	C434.837250,139.532150 432.610413,132.792389 427.552673,127.343582 
	C422.664642,122.077591 416.400604,118.762741 408.320862,117.030937 
	C384.870605,116.990898 361.420349,116.950859 337.966156,117.014343 
	C337.966156,117.014343 338.069336,117.023788 337.999481,116.083199 
z"/>
<path fill="#7434FF" opacity="1.000000" stroke="none" 
	d="
M286.095123,62.950256 
	C293.000610,62.638721 299.993805,61.498089 306.790283,62.217007 
	C316.140900,63.206097 325.018768,66.836845 330.691589,74.684784 
	C333.848724,79.052414 334.971375,84.890610 336.979126,90.951660 
	C336.972168,96.908699 336.876709,101.984612 337.064545,107.050018 
	C337.188110,110.382446 337.720184,113.699722 338.069336,117.023788 
	C338.069336,117.023788 337.966156,117.014343 338.208923,117.319656 
	C339.263733,117.743767 340.075623,117.965225 340.887817,117.966385 
	C362.575073,117.997238 384.262329,118.015739 405.949585,117.987495 
	C407.054688,117.986061 408.159241,117.549469 409.264038,117.315483 
	C416.400604,118.762741 422.664642,122.077591 427.552673,127.343582 
	C432.610413,132.792389 434.837250,139.532150 434.019165,148.000793 
	C434.053955,168.613983 434.101868,188.313171 434.149780,208.012344 
	C434.105255,212.838608 433.833740,217.677002 434.090668,222.487167 
	C434.283356,226.095352 433.522095,228.984924 429.735291,231.318298 
	C418.586578,231.723846 408.144012,231.823273 397.703644,232.032028 
	C395.984833,232.066376 394.275574,232.580276 392.561920,232.872543 
	C387.379211,236.987885 387.443298,242.187775 393.182983,244.884064 
	C405.157379,245.657852 416.651123,245.815582 428.144897,245.973328 
	C433.976074,247.957108 434.999481,249.740051 434.976654,257.635162 
	C434.954468,265.310150 435.106293,272.987823 434.951172,280.659668 
	C434.767761,289.732117 434.170593,298.797394 434.054138,307.869659 
	C433.893036,320.420105 434.010559,332.974213 434.013489,345.526733 
	C434.016754,359.532013 433.818695,373.541290 434.091583,387.541382 
	C434.348663,400.733368 421.375397,412.653137 409.101135,413.652100 
	C386.183685,413.243683 363.989563,413.154480 341.795410,413.108459 
	C341.193146,413.107208 340.589905,413.572418 339.645660,413.845001 
	C331.807953,406.585754 323.856842,399.693451 317.061646,391.805420 
	C314.675934,389.035980 314.432343,383.820465 314.443329,379.725189 
	C314.460693,373.259064 319.408264,369.272736 323.644836,365.148712 
	C328.801636,360.128967 338.165588,358.905182 343.624573,363.544220 
	C351.456238,370.199493 358.540619,377.728760 366.082367,384.736023 
	C367.244080,385.815430 369.577362,387.016479 370.601440,386.533630 
	C372.094635,385.829590 373.649170,383.747070 373.862244,382.083710 
	C375.152863,372.009613 372.361176,362.602570 366.918732,354.378113 
	C357.558441,340.233063 343.851074,333.287445 326.930573,334.163605 
	C317.590210,334.647247 310.900726,330.632111 304.423553,324.914246 
	C303.354340,323.970367 300.809692,323.672058 299.449249,324.252594 
	C291.427094,327.675598 283.598816,331.549713 275.613007,335.062225 
	C270.871338,337.147858 265.960388,338.848572 260.461731,340.979584 
	C262.225342,342.852081 263.288055,344.102081 264.475464,345.219543 
	C268.941711,349.422638 273.695068,353.351959 277.874939,357.819733 
	C282.603058,362.873505 283.990601,369.282928 284.038116,376.116150 
	C284.113647,386.983734 286.857391,396.893616 294.960236,404.769775 
	C297.519745,407.257660 299.837494,409.994232 301.785980,412.722717 
	C299.477356,412.884796 297.648621,412.989349 295.819855,412.990234 
	C263.352295,413.005524 230.884628,412.975891 198.417542,413.100006 
	C196.615631,413.106873 194.818527,414.364532 193.019180,415.039978 
	C193.019180,415.039978 192.995193,415.004211 192.799149,415.022491 
	C192.445267,415.369019 192.287430,415.697266 192.129608,416.025513 
	C187.527664,423.088928 179.695816,425.831665 172.988144,429.946472 
	C166.138672,434.148254 158.856232,437.730560 151.483673,440.942108 
	C149.193558,441.939728 145.390335,441.737152 143.408585,440.404938 
	C141.983887,439.447235 141.396896,435.262726 142.237259,433.281586 
	C144.932037,426.928650 148.464127,420.930878 151.569824,414.162750 
	C150.668640,413.356659 149.871155,413.034943 149.072906,413.033051 
	C131.797134,412.991730 114.521255,412.970276 97.245552,413.011047 
	C96.157158,413.013611 95.070045,413.555328 93.982338,413.846222 
	C84.115402,415.222504 68.277794,402.621918 68.353821,388.079529 
	C68.782669,386.695129 68.968704,386.042572 68.968796,385.389984 
	C68.974800,341.654175 68.971634,297.918365 68.924362,254.182602 
	C68.923195,253.098801 68.419212,252.015549 68.149750,250.932037 
	C68.437164,246.949402 71.462242,245.770767 74.557716,245.533432 
	C80.546906,245.074203 86.664833,245.685349 92.545227,244.725082 
	C94.796959,244.357361 96.544510,240.902191 98.521820,238.853943 
	C96.484352,236.903458 94.668465,233.663345 92.363892,233.267380 
	C87.359917,232.407562 82.105286,232.935638 76.955070,233.017853 
	C71.856758,233.099243 69.433090,230.057632 68.350189,225.010727 
	C68.780983,223.663086 68.976479,223.011520 68.977211,222.359711 
	C69.006767,196.287476 69.029182,170.215195 68.995522,144.143005 
	C68.994141,143.069946 68.445160,141.997604 68.151299,140.924927 
	C68.646019,131.613113 74.037941,125.466400 81.666771,121.231613 
	C85.246521,119.244492 89.500519,118.471992 94.152672,117.420883 
	C117.270767,117.760384 139.685165,117.842316 162.099472,117.828796 
	C162.793091,117.828377 163.486099,116.838066 164.179382,116.309235 
	C164.447632,106.393677 164.152420,96.418953 165.185318,86.583694 
	C165.856445,80.193123 169.868225,74.724136 174.918930,70.684128 
	C182.562378,64.570198 191.263687,62.008499 201.312256,62.801628 
	C209.542801,63.451263 217.896042,62.546684 226.937668,62.493225 
	C247.152008,62.753662 266.623566,62.851959 286.095123,62.950256 
M308.834717,117.173065 
	C311.072784,117.817429 312.095917,117.154610 312.035309,114.650574 
	C311.914490,109.658600 311.755157,104.646034 312.071259,99.671181 
	C312.373688,94.911430 310.898102,91.314636 306.621124,88.083878 
	C305.749939,87.743622 304.879242,87.107147 304.007538,87.105789 
	C268.922150,87.051071 233.836639,87.036423 198.751419,87.123604 
	C197.564285,87.126556 196.379868,88.229065 194.485504,89.093651 
	C193.329910,91.997902 191.450043,94.834351 191.170486,97.820618 
	C190.599884,103.915871 190.890701,110.091766 190.497635,116.770905 
	C192.101746,117.179451 193.705154,117.941444 195.310074,117.944603 
	C230.951416,118.014641 266.592926,118.010918 302.234375,117.976189 
	C304.202698,117.974266 306.170654,117.582741 308.834717,117.173065 
M278.965729,262.425781 
	C298.552551,238.669525 319.053497,215.796631 343.045166,196.232040 
	C322.323700,223.641388 300.715485,250.321030 279.828552,277.553894 
	C258.860291,304.892853 241.092667,334.353333 224.319397,364.504974 
	C226.330139,363.915100 227.921692,362.972748 228.881027,361.591400 
	C235.075394,352.672028 241.532333,343.894623 247.064987,334.573151 
	C249.847626,329.884979 253.669540,328.424713 258.277588,326.921265 
	C268.736420,323.508911 279.605347,320.710754 289.275360,315.679230 
	C302.623322,308.733978 315.122955,300.083527 325.547119,288.930847 
	C327.665192,286.664734 329.502472,284.106171 331.252045,281.534698 
	C332.806274,279.250397 331.634644,278.099335 329.211151,278.061707 
	C324.178986,277.983459 319.140289,278.131592 314.115082,277.924713 
	C312.758575,277.868835 311.440765,276.873596 310.105194,276.309540 
	C311.367432,275.524200 312.539703,274.301758 313.905701,274.020630 
	C328.592804,270.997772 340.778870,263.639832 351.495605,253.322556 
	C361.941254,243.266235 369.778534,231.348328 377.007507,218.965805 
	C377.788605,217.627914 377.337311,215.570557 377.457642,213.846939 
	C375.758392,213.807297 374.046906,213.617554 372.362091,213.754974 
	C366.308990,214.248764 360.264954,214.853088 354.217468,215.415634 
	C354.102417,214.775467 353.987366,214.135300 353.872284,213.495148 
	C358.323395,211.175858 362.692535,208.679214 367.243805,206.576797 
	C375.035400,202.977524 380.312653,196.582138 384.823181,189.839615 
	C390.383423,181.527954 394.348480,172.294327 396.104980,162.274078 
	C397.321869,155.331924 398.968048,148.453613 399.902252,141.477127 
	C400.574463,136.457275 398.250977,135.114441 393.821350,137.341797 
	C393.097290,137.705887 392.273041,137.866592 391.504669,138.147400 
	C371.561127,145.436066 353.464569,156.004318 336.413269,168.588379 
	C322.709625,178.701828 310.056763,189.894455 298.659973,202.541718 
	C293.774109,207.963684 288.149292,212.809708 283.834656,218.638687 
	C273.158203,233.062424 262.680756,247.663193 252.815384,262.648438 
	C244.481735,275.307007 238.414093,289.171265 234.401749,303.869934 
	C232.852615,309.544952 231.956055,315.643677 229.184189,320.681061 
	C225.158630,327.996796 219.769028,334.573303 214.844070,341.380371 
	C204.127609,356.192200 193.087616,370.777191 182.660828,385.788940 
	C175.168579,396.575775 168.354782,407.841858 161.471024,419.037231 
	C159.946426,421.516754 159.401337,424.598602 157.915253,428.782532 
	C163.064697,425.933624 167.118103,424.396271 170.275574,421.778351 
	C174.968979,417.886902 181.231567,416.323334 184.367645,409.937958 
	C190.453262,397.547028 197.230179,385.451019 204.407333,373.650391 
	C218.186340,350.995056 232.000549,328.336517 246.658737,306.249084 
	C256.549469,291.345428 267.910828,277.417755 278.965729,262.425781 
M154.117950,194.361496 
	C151.513947,197.544662 149.362762,201.296600 146.217819,203.800262 
	C138.033157,210.315994 128.285217,209.744720 120.838898,202.020050 
	C115.135254,196.103180 109.597397,190.025177 103.833824,184.168411 
	C102.587822,182.902283 100.691246,182.276367 99.094337,181.355560 
	C98.064873,183.333588 96.364143,185.233612 96.123589,187.303329 
	C95.147560,195.700974 96.692360,203.662628 99.984116,211.587387 
	C108.290466,231.584625 128.580948,242.950226 149.765656,242.241943 
	C154.697281,242.077072 160.270081,241.854065 164.591736,246.160065 
	C179.978882,261.491486 195.579086,276.608795 211.037445,291.869141 
	C214.144928,294.936829 216.984253,298.276154 220.115814,301.673126 
	C221.559067,300.004974 222.536346,299.367157 222.781891,298.517792 
	C226.400391,286.001007 231.734711,274.275482 238.335556,263.050049 
	C239.045044,261.843506 238.037125,258.773895 236.843399,257.463531 
	C233.441452,253.729233 229.397614,250.589340 225.847992,246.978027 
	C216.238525,237.201523 206.520660,227.512177 197.355499,217.329498 
	C194.419662,214.067749 192.323212,209.568100 191.207962,205.279770 
	C189.983353,200.570923 190.387222,195.448044 189.987885,190.513153 
	C189.057632,179.017639 182.807037,169.875870 175.205246,162.229446 
	C166.800613,153.775467 155.505295,149.701904 143.709290,148.211761 
	C138.935471,147.608719 133.823822,148.429504 129.050690,149.459015 
	C125.087914,150.313721 124.500053,152.887207 127.944359,155.719070 
	C135.448990,161.889313 143.015472,167.992386 150.317184,174.395981 
	C152.313522,176.146729 154.403503,178.720139 154.783936,181.174362 
	C155.413544,185.236084 154.690384,189.507523 154.117950,194.361496 
z"/>
<path fill="#FFFFFF" opacity="1.000000" stroke="none" 
	d="
M302.265869,412.617004 
	C299.837494,409.994232 297.519745,407.257660 294.960236,404.769775 
	C286.857391,396.893616 284.113647,386.983734 284.038116,376.116150 
	C283.990601,369.282928 282.603058,362.873505 277.874939,357.819733 
	C273.695068,353.351959 268.941711,349.422638 264.475464,345.219543 
	C263.288055,344.102081 262.225342,342.852081 260.461731,340.979584 
	C265.960388,338.848572 270.871338,337.147858 275.613007,335.062225 
	C283.598816,331.549713 291.427094,327.675598 299.449249,324.252594 
	C300.809692,323.672058 303.354340,323.970367 304.423553,324.914246 
	C310.900726,330.632111 317.590210,334.647247 326.930573,334.163605 
	C343.851074,333.287445 357.558441,340.233063 366.918732,354.378113 
	C372.361176,362.602570 375.152863,372.009613 373.862244,382.083710 
	C373.649170,383.747070 372.094635,385.829590 370.601440,386.533630 
	C369.577362,387.016479 367.244080,385.815430 366.082367,384.736023 
	C358.540619,377.728760 351.456238,370.199493 343.624573,363.544220 
	C338.165588,358.905182 328.801636,360.128967 323.644836,365.148712 
	C319.408264,369.272736 314.460693,373.259064 314.443329,379.725189 
	C314.432343,383.820465 314.675934,389.035980 317.061646,391.805420 
	C323.856842,399.693451 331.807953,406.585754 339.895355,413.936676 
	C340.655762,414.056122 340.825012,414.108795 340.994232,414.161469 
	C338.553101,419.953918 335.164490,422.265045 327.428223,420.805756 
	C319.369141,419.285645 311.588928,416.287140 303.378174,413.503540 
	C302.787231,412.951416 302.504883,412.830811 302.239990,412.690002 
	C302.257446,412.669769 302.265869,412.617004 302.265869,412.617004 
z"/>
<path fill="#BB53FF" opacity="1.000000" stroke="none" 
	d="
M68.071716,251.402954 
	C68.419212,252.015549 68.923195,253.098801 68.924362,254.182602 
	C68.971634,297.918365 68.974800,341.654175 68.968796,385.389984 
	C68.968704,386.042572 68.782669,386.695129 68.421219,387.669830 
	C68.108627,349.267700 68.057686,310.543488 68.008362,271.819244 
	C67.999893,265.170776 67.998390,258.522308 68.071716,251.402954 
z"/>
<path fill="#A64BFB" opacity="1.000000" stroke="none" 
	d="
M193.448685,414.990784 
	C194.818527,414.364532 196.615631,413.106873 198.417542,413.100006 
	C230.884628,412.975891 263.352295,413.005524 295.819855,412.990234 
	C297.648621,412.989349 299.477356,412.884796 301.785980,412.722717 
	C302.265869,412.617004 302.257446,412.669769 302.184570,412.920044 
	C302.111694,413.170349 302.134094,413.635437 302.134094,413.635437 
	C300.161011,413.759583 298.187988,413.990326 296.214813,413.991821 
	C268.001160,414.013519 239.787338,413.951782 211.573990,414.045105 
	C205.674469,414.064636 199.776749,414.628571 193.448685,414.990784 
z"/>
<path fill="#C356FF" opacity="1.000000" stroke="none" 
	d="
M68.067001,141.395355 
	C68.445160,141.997604 68.994141,143.069946 68.995522,144.143005 
	C69.029182,170.215195 69.006767,196.287476 68.977211,222.359711 
	C68.976479,223.011520 68.780983,223.663086 68.419891,224.636887 
	C68.103210,197.261261 68.042953,169.563538 68.067001,141.395355 
z"/>
<path fill="#A649FF" opacity="1.000000" stroke="none" 
	d="
M341.459167,414.088196 
	C340.825012,414.108795 340.655762,414.056122 340.236847,413.911774 
	C340.589905,413.572418 341.193146,413.107208 341.795410,413.108459 
	C363.989563,413.154480 386.183685,413.243683 408.704834,413.588745 
	C386.662628,413.905334 364.293365,413.960114 341.459167,414.088196 
z"/>
<path fill="#F56EFF" opacity="1.000000" stroke="none" 
	d="
M163.878403,116.614517 
	C163.486099,116.838066 162.793091,117.828377 162.099472,117.828796 
	C139.685165,117.842316 117.270767,117.760384 94.555954,117.436020 
	C115.702110,117.121353 137.148697,117.064987 158.595276,117.002319 
	C160.256058,116.997467 161.916718,116.948334 163.878403,116.614517 
z"/>
<path fill="#FF7EFF" opacity="1.000000" stroke="none" 
	d="
M408.792450,117.173210 
	C408.159241,117.549469 407.054688,117.986061 405.949585,117.987495 
	C384.262329,118.015739 362.575073,117.997238 340.887817,117.966385 
	C340.075623,117.965225 339.263733,117.743767 338.210907,117.267899 
	C361.420349,116.950859 384.870605,116.990898 408.792450,117.173210 
z"/>
<path fill="#A348FF" opacity="1.000000" stroke="none" 
	d="
M94.448463,413.923279 
	C95.070045,413.555328 96.157158,413.013611 97.245552,413.011047 
	C114.521255,412.970276 131.797134,412.991730 149.072906,413.033051 
	C149.871155,413.034943 150.668640,413.356659 151.731812,413.862885 
	C145.462723,414.460449 138.925537,414.997467 132.394547,414.930298 
	C119.899368,414.801849 107.407707,414.329773 94.448463,413.923279 
z"/>
<path fill="#FFFFFF" opacity="1.000000" stroke="none" 
	d="
M434.521484,207.791656 
	C434.101868,188.313171 434.053955,168.613983 434.076660,148.449905 
	C434.431458,148.833847 434.962891,149.682526 434.963440,150.531540 
	C434.975281,169.544662 434.928680,188.557816 434.521484,207.791656 
z"/>
<path fill="#9F47FF" opacity="1.000000" stroke="none" 
	d="
M285.866211,62.575684 
	C266.623566,62.851959 247.152008,62.753662 227.350189,62.407417 
	C246.559067,62.173355 266.098175,62.187233 285.866211,62.575684 
z"/>
<path fill="#FFFBFF" opacity="1.000000" stroke="none" 
	d="
M392.977722,232.926025 
	C394.275574,232.580276 395.984833,232.066376 397.703644,232.032028 
	C408.144012,231.823273 418.586578,231.723846 429.420532,231.553650 
	C428.207458,232.013794 426.606995,232.917755 424.996338,232.936295 
	C414.463287,233.057587 403.928040,232.987228 392.977722,232.926025 
z"/>
<path fill="#9D46FF" opacity="1.000000" stroke="none" 
	d="
M427.920898,245.588516 
	C416.651123,245.815582 405.157379,245.657852 393.366272,245.220367 
	C404.611603,245.028320 416.154266,245.116013 427.920898,245.588516 
z"/>
<path fill="#D15DFF" opacity="1.000000" stroke="none" 
	d="
M338.034424,116.553497 
	C337.720184,113.699722 337.188110,110.382446 337.064545,107.050018 
	C336.876709,101.984612 336.972168,96.908699 336.995300,91.363846 
	C337.361481,93.525925 337.890320,96.156281 337.954712,98.797951 
	C338.095062,104.556641 337.998962,110.321098 338.034424,116.553497 
z"/>
<path fill="#7434FF" opacity="1.000000" stroke="none" 
	d="
M302.293854,413.672302 
	C302.134094,413.635437 302.111694,413.170349 302.167114,412.940277 
	C302.504883,412.830811 302.787231,412.951416 303.008118,413.240540 
	C302.890625,413.687653 302.726257,413.787659 302.293854,413.672302 
z"/>
<path fill="#A64BFB" opacity="1.000000" stroke="none" 
	d="
M192.365036,415.950317 
	C192.287430,415.697266 192.445267,415.369019 192.818115,415.032104 
	C193.042999,415.385590 192.898788,415.669495 192.365036,415.950317 
z"/>
<path fill="#FFFFFF" opacity="1.000000" stroke="none" 
	d="
M278.790039,262.739624 
	C267.910828,277.417755 256.549469,291.345428 246.658737,306.249084 
	C232.000549,328.336517 218.186340,350.995056 204.407333,373.650391 
	C197.230179,385.451019 190.453262,397.547028 184.367645,409.937958 
	C181.231567,416.323334 174.968979,417.886902 170.275574,421.778351 
	C167.118103,424.396271 163.064697,425.933624 157.915253,428.782532 
	C159.401337,424.598602 159.946426,421.516754 161.471024,419.037231 
	C168.354782,407.841858 175.168579,396.575775 182.660828,385.788940 
	C193.087616,370.777191 204.127609,356.192200 214.844070,341.380371 
	C219.769028,334.573303 225.158630,327.996796 229.184189,320.681061 
	C231.956055,315.643677 232.852615,309.544952 234.401749,303.869934 
	C238.414093,289.171265 244.481735,275.307007 252.815384,262.648438 
	C262.680756,247.663193 273.158203,233.062424 283.834656,218.638687 
	C288.149292,212.809708 293.774109,207.963684 298.659973,202.541718 
	C310.056763,189.894455 322.709625,178.701828 336.413269,168.588379 
	C353.464569,156.004318 371.561127,145.436066 391.504669,138.147400 
	C392.273041,137.866592 393.097290,137.705887 393.821350,137.341797 
	C398.250977,135.114441 400.574463,136.457275 399.902252,141.477127 
	C398.968048,148.453613 397.321869,155.331924 396.104980,162.274078 
	C394.348480,172.294327 390.383423,181.527954 384.823181,189.839615 
	C380.312653,196.582138 375.035400,202.977524 367.243805,206.576797 
	C362.692535,208.679214 358.323395,211.175858 353.872284,213.495148 
	C353.987366,214.135300 354.102417,214.775467 354.217468,215.415634 
	C360.264954,214.853088 366.308990,214.248764 372.362091,213.754974 
	C374.046906,213.617554 375.758392,213.807297 377.457642,213.846939 
	C377.337311,215.570557 377.788605,217.627914 377.007507,218.965805 
	C369.778534,231.348328 361.941254,243.266235 351.495605,253.322556 
	C340.778870,263.639832 328.592804,270.997772 313.905701,274.020630 
	C312.539703,274.301758 311.367432,275.524200 310.105194,276.309540 
	C311.440765,276.873596 312.758575,277.868835 314.115082,277.924713 
	C319.140289,278.131592 324.178986,277.983459 329.211151,278.061707 
	C331.634644,278.099335 332.806274,279.250397 331.252045,281.534698 
	C329.502472,284.106171 327.665192,286.664734 325.547119,288.930847 
	C315.122955,300.083527 302.623322,308.733978 289.275360,315.679230 
	C279.605347,320.710754 268.736420,323.508911 258.277588,326.921265 
	C253.669540,328.424713 249.847626,329.884979 247.064987,334.573151 
	C241.532333,343.894623 235.075394,352.672028 228.881027,361.591400 
	C227.921692,362.972748 226.330139,363.915100 224.319397,364.504974 
	C241.092667,334.353333 258.860291,304.892853 279.828552,277.553894 
	C300.715485,250.321030 322.323700,223.641388 343.045166,196.232040 
	C319.053497,215.796631 298.552551,238.669525 278.790039,262.739624 
z"/>
<path fill="#FFFFFF" opacity="1.000000" stroke="none" 
	d="
M154.327576,194.026047 
	C154.690384,189.507523 155.413544,185.236084 154.783936,181.174362 
	C154.403503,178.720139 152.313522,176.146729 150.317184,174.395981 
	C143.015472,167.992386 135.448990,161.889313 127.944359,155.719070 
	C124.500053,152.887207 125.087914,150.313721 129.050690,149.459015 
	C133.823822,148.429504 138.935471,147.608719 143.709290,148.211761 
	C155.505295,149.701904 166.800613,153.775467 175.205246,162.229446 
	C182.807037,169.875870 189.057632,179.017639 189.987885,190.513153 
	C190.387222,195.448044 189.983353,200.570923 191.207962,205.279770 
	C192.323212,209.568100 194.419662,214.067749 197.355499,217.329498 
	C206.520660,227.512177 216.238525,237.201523 225.847992,246.978027 
	C229.397614,250.589340 233.441452,253.729233 236.843399,257.463531 
	C238.037125,258.773895 239.045044,261.843506 238.335556,263.050049 
	C231.734711,274.275482 226.400391,286.001007 222.781891,298.517792 
	C222.536346,299.367157 221.559067,300.004974 220.115814,301.673126 
	C216.984253,298.276154 214.144928,294.936829 211.037445,291.869141 
	C195.579086,276.608795 179.978882,261.491486 164.591736,246.160065 
	C160.270081,241.854065 154.697281,242.077072 149.765656,242.241943 
	C128.580948,242.950226 108.290466,231.584625 99.984116,211.587387 
	C96.692360,203.662628 95.147560,195.700974 96.123589,187.303329 
	C96.364143,185.233612 98.064873,183.333588 99.094337,181.355560 
	C100.691246,182.276367 102.587822,182.902283 103.833824,184.168411 
	C109.597397,190.025177 115.135254,196.103180 120.838898,202.020050 
	C128.285217,209.744720 138.033157,210.315994 146.217819,203.800262 
	C149.362762,201.296600 151.513947,197.544662 154.327576,194.026047 
z"/>
<path fill="#000000" opacity="1.000000" stroke="none" 
	d="
M306.826752,88.817276 
	C310.898102,91.314636 312.373688,94.911430 312.071259,99.671181 
	C311.755157,104.646034 311.914490,109.658600 312.035309,114.650574 
	C312.095917,117.154610 311.072784,117.817429 308.021179,117.129097 
	C270.142853,117.056976 233.078049,117.039085 196.013351,116.968330 
	C194.284012,116.965034 192.555542,116.489853 190.826675,116.234444 
	C190.890701,110.091766 190.599884,103.915871 191.170486,97.820618 
	C191.450043,94.834351 193.329910,91.997902 195.246063,89.000908 
	C197.747925,88.602951 199.488800,88.034340 201.230606,88.031487 
	C234.837799,87.976494 268.445099,87.976379 302.052307,88.020683 
	C303.644135,88.022781 305.235291,88.539970 306.826752,88.817276 
z"/>
<path fill="#FD80FF" opacity="1.000000" stroke="none" 
	d="
M190.662155,116.502670 
	C192.555542,116.489853 194.284012,116.965034 196.013351,116.968330 
	C233.078049,117.039085 270.142853,117.056976 307.673187,117.228851 
	C306.170654,117.582741 304.202698,117.974266 302.234375,117.976189 
	C266.592926,118.010918 230.951416,118.014641 195.310074,117.944603 
	C193.705154,117.941444 192.101746,117.179451 190.662155,116.502670 
z"/>
<path fill="#E766FF" opacity="1.000000" stroke="none" 
	d="
M306.723938,88.450577 
	C305.235291,88.539970 303.644135,88.022781 302.052307,88.020683 
	C268.445099,87.976379 234.837799,87.976494 201.230606,88.031487 
	C199.488800,88.034340 197.747925,88.602951 195.600403,88.863609 
	C196.379868,88.229065 197.564285,87.126556 198.751419,87.123604 
	C233.836639,87.036423 268.922150,87.051071 304.007538,87.105789 
	C304.879242,87.107147 305.749939,87.743622 306.723938,88.450577 
z"/>
</svg>